<svg width="175" height="191" viewBox="0 0 175 191" fill="none" xmlns="http://www.w3.org/2000/svg">
<g clip-path="url(#clip0_21269_33)">
<path d="M93.6877 20.0594C99.796 36.3923 119.787 33.9344 133.352 30.4458C136.605 29.5737 139.937 28.6222 142.872 26.9572C145.807 25.2922 148.266 22.5965 149.218 19.3458C150.249 15.6986 149.059 11.655 146.997 8.4836C145.093 5.55002 142.316 2.45786 139.381 0.554999C138.112 3.80573 133.59 4.04358 130.496 4.04358C126.133 4.04358 122.167 2.37858 118.121 1.18929C113.996 -3.39915e-06 109.553 -0.237861 105.428 0.872143C97.0988 2.85429 90.4352 11.3379 93.6877 20.0594Z" fill="#0C0B0B"/>
<path d="M106.142 129.395C105.904 129.395 105.825 129.395 105.666 129.474L106.142 129.395Z" fill="#0C0B0B"/>
<path d="M106.142 129.395C105.904 129.395 105.825 129.395 105.666 129.474L106.142 129.395Z" fill="#0C0B0B"/>
<path d="M88.5313 49.8709V34.5687C88.5313 21.5658 100.669 10.9415 115.503 10.9415C122.881 10.9415 129.624 13.5579 134.542 17.8393C139.461 22.1208 142.475 27.988 142.475 34.4894V49.7916" stroke="#0C0B0B" stroke-width="2" stroke-miterlimit="10"/>
<path d="M142.475 66.4417V84.1225C142.475 97.1254 130.338 107.75 115.503 107.75C100.669 107.75 88.5313 97.1254 88.5313 84.1225V66.4417" stroke="#0C0B0B" stroke-width="2" stroke-miterlimit="10"/>
<path d="M99.4787 71.9124C107.058 71.9124 113.203 65.7714 113.203 58.1959C113.203 50.6205 107.058 44.4795 99.4787 44.4795C91.8992 44.4795 85.7548 50.6205 85.7548 58.1959C85.7548 65.7714 91.8992 71.9124 99.4787 71.9124Z" stroke="#0C0B0B" stroke-width="2" stroke-miterlimit="10"/>
<path d="M131.448 71.9124C139.028 71.9124 145.172 65.7714 145.172 58.1959C145.172 50.6205 139.028 44.4795 131.448 44.4795C123.869 44.4795 117.724 50.6205 117.724 58.1959C117.724 65.7714 123.869 71.9124 131.448 71.9124Z" stroke="#0C0B0B" stroke-width="2" stroke-miterlimit="10"/>
<path d="M113.123 57.7995H117.883" stroke="#0C0B0B" stroke-width="4" stroke-miterlimit="10"/>
<path d="M126.53 105.609H126.609V130.425" stroke="#0C0B0B" stroke-width="2" stroke-miterlimit="10"/>
<path d="M106.777 130.108V106.243" stroke="#0C0B0B" stroke-width="2" stroke-miterlimit="10"/>
<path d="M99.4787 61.3674C101.231 61.3674 102.652 59.9475 102.652 58.1959C102.652 56.4444 101.231 55.0245 99.4787 55.0245C97.7262 55.0245 96.3055 56.4444 96.3055 58.1959C96.3055 59.9475 97.7262 61.3674 99.4787 61.3674Z" fill="#0C0B0B"/>
<path d="M131.448 61.3674C133.201 61.3674 134.621 59.9475 134.621 58.1959C134.621 56.4444 133.201 55.0245 131.448 55.0245C129.696 55.0245 128.275 56.4444 128.275 58.1959C128.275 59.9475 129.696 61.3674 131.448 61.3674Z" fill="#0C0B0B"/>
<path d="M86.7067 63.3495H85.1201C83.3749 63.3495 81.7883 64.0631 80.5984 65.1731C79.4878 66.3624 78.7738 67.9481 78.7738 69.6924C78.7738 73.181 81.6296 76.0353 85.1201 76.0353H88.2933" stroke="#0C0B0B" stroke-width="2" stroke-miterlimit="10"/>
<path d="M144.22 63.3495H145.807C149.297 63.3495 152.153 66.2038 152.153 69.6924C152.153 71.4367 151.439 73.0224 150.249 74.2117C149.139 75.3217 147.552 76.0353 145.807 76.0353H142.634" stroke="#0C0B0B" stroke-width="2" stroke-miterlimit="10"/>
<path d="M88.3726 67.7896V71.5953H85.8341C84.8028 71.5953 83.9302 70.7231 83.9302 69.6924C83.9302 69.1374 84.1682 68.6617 84.4855 68.3446C84.8028 68.0274 85.2788 67.7896 85.8341 67.7896H88.3726V67.7896Z" fill="#0C0B0B"/>
<path d="M142.634 71.5953V67.7896H145.172C146.204 67.7896 147.076 68.6617 147.076 69.6924C147.076 70.2474 146.838 70.7231 146.521 71.0403C146.204 71.3574 145.728 71.5953 145.172 71.5953H142.634V71.5953Z" fill="#0C0B0B"/>
<path d="M115.503 71.2781C115.503 71.2781 111.537 77.621 117.883 76.0353" stroke="#0C0B0B" stroke-width="2" stroke-miterlimit="10" stroke-linecap="round"/>
<path d="M108.364 89.5932C108.364 89.5932 114.71 97.4425 123.436 89.5932" stroke="#0C0B0B" stroke-width="2" stroke-miterlimit="10" stroke-linecap="round"/>
<path d="M93.291 41.9423C93.291 41.9423 97.6541 37.5816 105.19 41.1495" stroke="#0C0B0B" stroke-width="3" stroke-miterlimit="10" stroke-linecap="round"/>
<path d="M137.715 41.9423C137.715 41.9423 133.352 37.5816 125.816 41.1495" stroke="#0C0B0B" stroke-width="3" stroke-miterlimit="10" stroke-linecap="round"/>
<path d="M88.3726 32.9037C88.3726 32.9037 77.4252 24.4201 82.1849 14.1129C86.9447 3.80572 102.017 9.35574 102.017 9.35574C102.017 9.35574 108.046 35.0444 88.3726 32.9037Z" fill="#0C0B0B"/>
<path d="M33.9529 96.2539C33.0009 93.1617 31.6523 91.6553 30.9383 87.136C29.4311 78.0974 29.9864 69.4552 26.2579 69.7723C24.7507 69.9309 24.2747 71.5166 24.354 72.3888L25.544 86.6603C25.068 88.3253 24.1954 87.691 24.1954 87.691C24.1954 87.691 21.1015 75.0052 20.7049 72.7059C20.3082 70.4859 19.1976 69.2173 17.6904 69.3759C15.0725 69.6138 16.1038 72.7852 16.3418 73.9745L19.1183 89.356C19.3563 90.8624 17.7697 90.3867 17.7697 90.3867L11.582 75.0052C10.8681 73.3402 9.51949 73.7366 9.51949 73.7366C7.06029 74.2916 8.01224 76.5116 8.01224 76.5116L13.3273 92.8446C13.3273 92.9239 13.3273 93.0031 13.3273 93.0824C13.4066 93.9546 12.296 94.4303 11.82 93.6374C10.1541 91.1003 6.90163 87.0567 4.20444 85.471C2.85585 84.6781 1.9039 84.8367 1.34859 85.2331C0.793288 85.6295 0.713959 86.3431 1.1106 86.8981L11.0267 101.249C13.3273 116.472 22.6088 118.295 22.6088 118.295L28.1618 140.02L36.3327 174.271L37.364 178.632C38.316 182.834 42.1237 185.847 46.4075 185.847H50.7706C53.8645 185.847 56.0063 182.834 55.0544 179.98L35.3014 119.881L34.4288 114.648C36.3327 112.508 37.602 107.988 38.2366 104.737C38.6333 102.993 38.7919 101.17 38.6333 99.4253C38.316 95.0646 41.2511 87.2153 41.2511 87.2153C41.0131 85.7088 38.1573 86.9774 38.1573 86.9774C34.9841 88.0874 34.1908 93.1617 33.9529 95.9367C33.8735 97.126 33.3182 98.1567 32.5249 98.9496C27.7652 103.627 27.3685 108.86 27.3685 108.86" stroke="#0C0B0B" stroke-width="2" stroke-miterlimit="10"/>
<path d="M20.6256 72.7846C20.2289 70.5646 19.515 68.8996 17.6111 69.4546C15.0725 70.1681 16.0245 72.8638 16.2625 74.0531" stroke="#0C0B0B" stroke-width="2" stroke-miterlimit="10"/>
<path d="M56.9583 185.846L56.7203 186.005C56.7996 186.005 56.879 185.926 56.9583 185.846Z" fill="#0C0B0B"/>
<path d="M106.761 130.659C106.889 130.659 107.086 130.655 107.297 130.579H107.301L107.325 130.577L107.569 130.552V133.013C107.569 133.535 107.775 134.133 108.259 134.624C108.93 135.378 109.981 136.006 111.247 136.475C112.522 136.948 114.05 137.272 115.71 137.395C116.295 137.477 116.874 137.477 117.414 137.477H117.43H117.43H117.431H117.431H117.432H117.432H117.433H117.433H117.433H117.434H117.434H117.435H117.435H117.436H117.436H117.437H117.437H117.438H117.438H117.439H117.439H117.439H117.44H117.44H117.441H117.441H117.442H117.442H117.443H117.443H117.444H117.444H117.445H117.445H117.446H117.446H117.446H117.447H117.447H117.448H117.448H117.449H117.449H117.45H117.45H117.451H117.451H117.452H117.452H117.452H117.453H117.453H117.454H117.454H117.455H117.455H117.456H117.456H117.457H117.457H117.458H117.458H117.458H117.459H117.459H117.46H117.46H117.461H117.461H117.462H117.462H117.463H117.463H117.463H117.464H117.464H117.465H117.465H117.466H117.466H117.467H117.467H117.468H117.468H117.468H117.469H117.469H117.47H117.47H117.471H117.471H117.472H117.472H117.472H117.473H117.473H117.474H117.474H117.475H117.475H117.476H117.476H117.477H117.477H117.477H117.478H117.478H117.479H117.479H117.48H117.48H117.481H117.481H117.481H117.482H117.482H117.483H117.483H117.484H117.484H117.484H117.485H117.485H117.486H117.486H117.487H117.487H117.488H117.488H117.488H117.489H117.489H117.49H117.49H117.491H117.491H117.491H117.492H117.492H117.493H117.493H117.494H117.494H117.494H117.495H117.495H117.496H117.496H117.497H117.497H117.497H117.498H117.498H117.499H117.499H117.5H117.5H117.5H117.501H117.501H117.502H117.502H117.503H117.503H117.503H117.504H117.504H117.505H117.505H117.505H117.506H117.506H117.507H117.507H117.508H117.508H117.508H117.509H117.509H117.51H117.51H117.51H117.511H117.511H117.512H117.512H117.512H117.513H117.513H117.514H117.514H117.514H117.515H117.515H117.516H117.516H117.516H117.517H117.517H117.518H117.518H117.518H117.519H117.519H117.52H117.52H117.52H117.521H117.521H117.521H117.522H117.522H117.523H117.523H117.523H117.524H117.524H117.525H117.525H117.525H117.526H117.526H117.526H117.527H117.527H117.528H117.528H117.528H117.529H117.529H117.529H117.53H117.53H117.531H117.531H117.531H117.532H117.532H117.532H117.533H117.533H117.533H117.534H117.534H117.535H117.535H117.535H117.536H117.536H117.536H117.537H117.537H117.537H117.538H117.538H117.538H117.539H117.539H117.54H117.54H117.54H117.541H117.541H117.541H117.542H117.542H117.542H117.543H117.543H117.543H117.544H117.544H117.544H117.545H117.545H117.545H117.546H117.546H117.546H117.547H117.547H117.547H117.548H117.548H117.548H117.549H117.549H117.549H117.549H117.55H117.55H117.55H117.551H117.551H117.551H117.552H117.552H117.552H117.553H117.553H117.553H117.554H117.554H117.554H117.554H117.555H117.555H117.555H117.556H117.556H117.556H117.557H117.557H117.557H117.557H117.558H117.558H117.558H117.559H117.559H117.559H117.559H117.56H117.56H117.56H117.561H117.561H117.561H117.561H117.562H117.562H117.562H117.562H117.563H117.563H117.563H117.563H117.564H117.564H117.564H117.565H117.565H117.565H117.565H117.566H117.566H117.566H117.566H117.567H117.567H117.567H117.567H117.568H117.568H117.568H117.568H117.569H117.569H117.569H117.569H117.569H117.57H117.57H117.57H117.57H117.571H117.571H117.571H117.571H117.572H117.572H117.572H117.572H117.572H117.573H117.573H117.573H117.573H117.574H117.574H117.574H117.574H117.574H117.575H117.575H117.575H117.575H117.575H117.576H117.576H117.576H117.576H117.576H117.577H117.577H117.577H117.577H117.577H117.577H117.578H117.578H117.578H117.578H117.578H117.579H117.579H117.579H117.579H117.579H117.579H117.58H117.58H117.58H117.58H117.58H117.58H117.581H117.581H117.581H117.581H117.581H117.581H117.581H117.582H117.582H117.582H117.582H117.582H117.582H117.582H117.583H117.583H117.583H117.583H117.583H117.583H117.583H117.584H117.584H117.584H117.584H117.584H117.584H117.584H117.584H117.584H117.585H117.585H117.585H117.585H117.585H117.585H117.585H117.585H117.585H117.586H117.586H117.586H117.586H117.586H117.586H117.586H117.586H117.586H117.586H117.586H117.587H117.587H117.587H117.587H117.587H117.587H117.587H117.587H117.587H117.587H117.587H117.587H117.587H117.587H117.588H117.588H117.588H117.588H117.588H117.588H117.588H117.588H117.588H117.588H117.588H117.668V137.477L117.68 137.477C120.906 137.396 123.973 136.513 125.604 135.141C126.119 134.711 126.735 134.029 126.735 133.013V130.848L126.931 130.887L126.979 130.896H127.029H127.187C127.251 130.896 127.305 130.906 127.407 130.926L127.416 130.928C127.513 130.948 127.653 130.976 127.822 130.976H128.322V130.821L128.777 130.891L128.785 130.892L128.792 130.893C143.227 132.662 154.744 139.141 162.658 149.403C170.577 159.673 174.919 173.769 174.919 190.812V191.105H158.543L154.968 171.298L153.976 171.387V191.105H80.0898V180.109C80.0898 177.333 80.0898 174.565 80.1689 171.798L80.2 170.711L79.3546 171.395C77.7226 172.715 75.9279 173.809 73.794 174.994L73.7758 175.004L73.7586 175.015L57.1788 186.115L57.1381 186.143L57.1213 186.16C57.1192 186.161 57.117 186.162 57.1144 186.163L57.1085 186.166C57.0745 186.183 57.0057 186.217 56.9308 186.277C56.2942 186.622 55.5987 186.824 54.8391 186.824H54.8296L54.8201 186.824L53.4297 186.877C53.5013 186.825 53.5736 186.772 53.6464 186.716C54.7284 185.891 55.961 184.582 56.4347 182.688L56.4681 182.555L56.4286 182.423L50.5734 162.916C52.3457 161.407 54.3373 159.354 56.5894 157.033C56.9916 156.618 57.4022 156.195 57.8213 155.765C60.7105 152.799 64.0302 149.475 67.9018 146.241C75.6423 139.776 85.5764 133.686 98.6282 131.604L98.6412 131.602L98.6541 131.599C99.7609 131.362 100.934 131.128 102.181 130.972L102.181 130.972L102.185 130.971C103.377 130.813 104.549 130.656 105.877 130.578L105.885 130.578L105.893 130.577L106.22 130.547V130.659H106.238L106.244 130.738L106.254 130.738C106.391 130.738 106.54 130.738 106.736 130.663L106.761 130.659Z" fill="#0D47A1" stroke="black"/>
</g>
<defs>
<clipPath id="clip0_21269_33">
<rect width="175" height="191" fill="white"/>
</clipPath>
</defs>
</svg>
